<?xml version="1.0" encoding="utf-8"?>
<!-- Generator: Adobe Illustrator 17.0.2, SVG Export Plug-In . SVG Version: 6.00 Build 0)  -->
<!DOCTYPE svg PUBLIC "-//W3C//DTD SVG 1.1//EN" "http://www.w3.org/Graphics/SVG/1.1/DTD/svg11.dtd">
<svg version="1.1" id="Layer_1" xmlns="http://www.w3.org/2000/svg" xmlns:xlink="http://www.w3.org/1999/xlink" x="0px" y="0px"
	 width="113.361px" height="136.067px" viewBox="0 0 113.361 136.067" enable-background="new 0 0 113.361 136.067"
	 xml:space="preserve">
<path fill="#FFFFFF" d="M55.321,32.861c0,0,28.166-1.707,26.673-32.861C81.994,0,55.321,3.627,55.321,32.861z"/>
<path fill="#FFFFFF" d="M108.88,44.17c0,0-35.635,30.514,4.481,55.266c0,0-15.363,45.237-39.902,34.781c0,0-15.15-8.962-29.02,0.64
	c0,0-24.752,12.376-41.823-42.036c0,0-11.736-40.329,14.51-57.613c0,0,9.816-8.109,22.832-3.414c0,0,15.577,7.255,26.033,3.201
	C65.99,34.995,93.303,21.338,108.88,44.17z"/>
</svg>
